<svg width="487" height="74" viewBox="0 0 487 74" fill="none" xmlns="http://www.w3.org/2000/svg">
<path d="M300.48 38.72V1.12H310.72V38.72H300.48ZM305.6 58.24C303.467 58.24 301.653 57.5467 300.16 56.16C298.72 54.72 298 52.88 298 50.64C298 48.4 298.72 46.5867 300.16 45.2C301.653 43.76 303.467 43.04 305.6 43.04C307.787 43.04 309.6 43.76 311.04 45.2C312.48 46.5867 313.2 48.4 313.2 50.64C313.2 52.88 312.48 54.72 311.04 56.16C309.6 57.5467 307.787 58.24 305.6 58.24Z" fill="#111111"/>
<path d="M253.064 73.1199V17.4399H262.984V22.2399H264.424C265.331 20.6933 266.744 19.3333 268.664 18.1599C270.584 16.9333 273.331 16.3199 276.904 16.3199C280.104 16.3199 283.064 17.1199 285.784 18.7199C288.504 20.2666 290.691 22.5599 292.344 25.5999C293.998 28.6399 294.824 32.3199 294.824 36.6399V37.9199C294.824 42.2399 293.998 45.9199 292.344 48.9599C290.691 51.9999 288.504 54.32 285.784 55.92C283.064 57.4666 280.104 58.24 276.904 58.24C274.504 58.24 272.478 57.9466 270.824 57.3599C269.224 56.8266 267.918 56.1333 266.904 55.28C265.944 54.3733 265.171 53.4666 264.584 52.56H263.144V73.1199H253.064ZM273.864 49.4399C277.011 49.4399 279.598 48.4533 281.624 46.4799C283.704 44.4533 284.744 41.5199 284.744 37.6799V36.8799C284.744 33.0399 283.704 30.1333 281.624 28.1599C279.544 26.1333 276.958 25.1199 273.864 25.1199C270.771 25.1199 268.184 26.1333 266.104 28.1599C264.024 30.1333 262.984 33.0399 262.984 36.8799V37.6799C262.984 41.5199 264.024 44.4533 266.104 46.4799C268.184 48.4533 270.771 49.4399 273.864 49.4399Z" fill="#111111"/>
<path d="M223.688 57.7599C220.594 57.7599 217.874 57.0666 215.528 55.6799C213.234 54.2399 211.448 52.2666 210.168 49.7599C208.888 47.2533 208.248 44.3733 208.248 41.1199V17.4399H218.328V40.3199C218.328 43.3066 219.048 45.5466 220.488 47.0399C221.981 48.5333 224.088 49.2799 226.808 49.2799C229.901 49.2799 232.301 48.2666 234.008 46.2399C235.714 44.1599 236.568 41.2799 236.568 37.5999V17.4399H246.648V57.1199H236.728V51.9199H235.288C234.648 53.2533 233.448 54.5599 231.688 55.8399C229.928 57.1199 227.261 57.7599 223.688 57.7599Z" fill="#111111"/>
<path d="M138.321 57.1199L132.721 17.4399H142.721L146.241 50.3199H147.681L152.801 17.4399H168.961L174.081 50.3199H175.521L179.041 17.4399H189.041L183.441 57.1199H166.721L161.601 24.2399H160.161L155.041 57.1199H138.321Z" fill="#111111"/>
<path d="M109.973 58.24C106.026 58.24 102.479 57.44 99.3326 55.84C96.1859 54.24 93.7059 51.92 91.8926 48.88C90.0793 45.84 89.1726 42.1866 89.1726 37.9199V36.6399C89.1726 32.3733 90.0793 28.7199 91.8926 25.6799C93.7059 22.6399 96.1859 20.3199 99.3326 18.7199C102.479 17.1199 106.026 16.3199 109.973 16.3199C113.919 16.3199 117.466 17.1199 120.613 18.7199C123.759 20.3199 126.239 22.6399 128.053 25.6799C129.866 28.7199 130.773 32.3733 130.773 36.6399V37.9199C130.773 42.1866 129.866 45.84 128.053 48.88C126.239 51.92 123.759 54.24 120.613 55.84C117.466 57.44 113.919 58.24 109.973 58.24ZM109.973 49.2799C113.066 49.2799 115.626 48.2933 117.653 46.3199C119.679 44.2933 120.693 41.4133 120.693 37.6799V36.8799C120.693 33.1466 119.679 30.2933 117.653 28.3199C115.679 26.2933 113.119 25.2799 109.973 25.2799C106.879 25.2799 104.319 26.2933 102.293 28.3199C100.266 30.2933 99.2526 33.1466 99.2526 36.8799V37.6799C99.2526 41.4133 100.266 44.2933 102.293 46.3199C104.319 48.2933 106.879 49.2799 109.973 49.2799Z" fill="#111111"/>
<path d="M46.5957 57.12V1.12H56.6757V22.32H58.1157C58.5424 21.4667 59.209 20.6133 60.1157 19.76C61.0224 18.9067 62.2224 18.2133 63.7157 17.68C65.2624 17.0933 67.209 16.8 69.5557 16.8C72.649 16.8 75.3424 17.52 77.6357 18.96C79.9824 20.3467 81.7957 22.2933 83.0757 24.8C84.3557 27.2533 84.9957 30.1333 84.9957 33.44V57.12H74.9157V34.24C74.9157 31.2533 74.169 29.0133 72.6757 27.52C71.2357 26.0267 69.1557 25.28 66.4357 25.28C63.3424 25.28 60.9424 26.32 59.2357 28.4C57.529 30.4267 56.6757 33.28 56.6757 36.96V57.12H46.5957Z" fill="#111111"/>
<path d="M22 58.24C17.68 58.24 13.8667 57.4667 10.56 55.92C7.25333 54.3733 4.66667 52.16 2.8 49.28C0.933333 46.4 0 42.9333 0 38.88V36.64H10.4V38.88C10.4 42.24 11.44 44.7733 13.52 46.48C15.6 48.1333 18.4267 48.96 22 48.96C25.6267 48.96 28.32 48.24 30.08 46.8C31.8933 45.36 32.8 43.52 32.8 41.28C32.8 39.7333 32.3467 38.48 31.44 37.52C30.5867 36.56 29.3067 35.7867 27.6 35.2C25.9467 34.56 23.92 33.9733 21.52 33.44L19.68 33.04C15.84 32.1867 12.5333 31.12 9.76 29.84C7.04 28.5067 4.93333 26.7733 3.44 24.64C2 22.5067 1.28 19.7333 1.28 16.32C1.28 12.9067 2.08 10 3.68 7.6C5.33333 5.14667 7.62667 3.28 10.56 2C13.5467 0.666667 17.04 0 21.04 0C25.04 0 28.5867 0.693334 31.68 2.08C34.8267 3.41333 37.28 5.44 39.04 8.16C40.8533 10.8267 41.76 14.1867 41.76 18.24V20.64H31.36V18.24C31.36 16.1067 30.9333 14.4 30.08 13.12C29.28 11.7867 28.1067 10.8267 26.56 10.24C25.0133 9.6 23.1733 9.28 21.04 9.28C17.84 9.28 15.4667 9.89333 13.92 11.12C12.4267 12.2933 11.68 13.92 11.68 16C11.68 17.3867 12.0267 18.56 12.72 19.52C13.4667 20.48 14.56 21.28 16 21.92C17.44 22.56 19.28 23.12 21.52 23.6L23.36 24C27.36 24.8533 30.8267 25.9467 33.76 27.28C36.7467 28.6133 39.0667 30.3733 40.72 32.56C42.3733 34.7467 43.2 37.5467 43.2 40.96C43.2 44.3733 42.32 47.3867 40.56 50C38.8533 52.56 36.4 54.5867 33.2 56.08C30.0533 57.52 26.32 58.24 22 58.24Z" fill="#111111"/>
<path d="M472.729 57.6019V53.0659C475.809 53.0659 478.105 52.1839 479.617 50.4199C481.129 48.6839 481.885 45.9539 481.885 42.2299V30.8899C481.885 27.1659 481.129 24.4359 479.617 22.6999C478.105 20.9359 475.809 20.0539 472.729 20.0539V15.5179C475.865 15.5179 478.483 16.0639 480.583 17.1559C482.711 18.2479 484.307 19.9139 485.371 22.1539C486.463 24.3939 487.009 27.2499 487.009 30.7219V42.3979C487.009 45.8699 486.463 48.7259 485.371 50.9659C484.307 53.2059 482.711 54.8719 480.583 55.9639C478.483 57.0559 475.865 57.6019 472.729 57.6019Z" fill="#EB4C6F"/>
<path d="M464.261 47.8579C462.189 47.8579 460.355 47.4239 458.759 46.5559C457.191 45.6599 455.959 44.4139 455.063 42.8179C454.195 41.1939 453.761 39.2899 453.761 37.1059V36.6019C453.761 34.4179 454.195 32.5279 455.063 30.9319C455.931 29.3079 457.149 28.0619 458.717 27.1939C460.285 26.2979 462.105 25.8499 464.177 25.8499C466.221 25.8499 467.999 26.3119 469.511 27.2359C471.023 28.1319 472.199 29.3919 473.039 31.0159C473.879 32.6119 474.299 34.4739 474.299 36.6019V38.4079H459.137C459.193 39.8359 459.725 40.9979 460.733 41.8939C461.741 42.7899 462.973 43.2379 464.429 43.2379C465.913 43.2379 467.005 42.9159 467.705 42.2719C468.405 41.6279 468.937 40.9139 469.301 40.1299L473.627 42.3979C473.235 43.1259 472.661 43.9239 471.905 44.7919C471.177 45.6319 470.197 46.3599 468.965 46.9759C467.733 47.5639 466.165 47.8579 464.261 47.8579ZM459.179 34.4599H468.923C468.811 33.2559 468.321 32.2899 467.453 31.5619C466.613 30.8339 465.507 30.4699 464.135 30.4699C462.707 30.4699 461.573 30.8339 460.733 31.5619C459.893 32.2899 459.375 33.2559 459.179 34.4599Z" fill="#EB4C6F"/>
<path d="M443.916 47.8579C441.2 47.8579 438.974 47.2699 437.238 46.0939C435.502 44.9179 434.452 43.2379 434.088 41.0539L438.96 39.7939C439.156 40.7739 439.478 41.5439 439.926 42.1039C440.402 42.6639 440.976 43.0699 441.648 43.3219C442.348 43.5459 443.104 43.6579 443.916 43.6579C445.148 43.6579 446.058 43.4479 446.646 43.0279C447.234 42.5799 447.528 42.0339 447.528 41.3899C447.528 40.7459 447.248 40.2559 446.688 39.9199C446.128 39.5559 445.232 39.2619 444 39.0379L442.824 38.8279C441.368 38.5479 440.038 38.1699 438.834 37.6939C437.63 37.1899 436.664 36.5039 435.936 35.6359C435.208 34.7679 434.844 33.6479 434.844 32.2759C434.844 30.2039 435.6 28.6219 437.112 27.5299C438.624 26.4099 440.612 25.8499 443.076 25.8499C445.4 25.8499 447.332 26.3679 448.872 27.4039C450.412 28.4399 451.42 29.7979 451.896 31.4779L446.982 32.9899C446.758 31.9259 446.296 31.1699 445.596 30.7219C444.924 30.2739 444.084 30.0499 443.076 30.0499C442.068 30.0499 441.298 30.2319 440.766 30.5959C440.234 30.9319 439.968 31.4079 439.968 32.0239C439.968 32.6959 440.248 33.1999 440.808 33.5359C441.368 33.8439 442.124 34.0819 443.076 34.2499L444.252 34.4599C445.82 34.7399 447.234 35.1179 448.494 35.5939C449.782 36.0419 450.79 36.6999 451.518 37.5679C452.274 38.4079 452.652 39.5559 452.652 41.0119C452.652 43.1959 451.854 44.8899 450.258 46.0939C448.69 47.2699 446.576 47.8579 443.916 47.8579Z" fill="#EB4C6F"/>
<path d="M426.627 47.2699V17.8699H431.919V47.2699H426.627Z" fill="#EB4C6F"/>
<path d="M414.399 47.8579C412.327 47.8579 410.493 47.4239 408.897 46.5559C407.329 45.6599 406.097 44.4139 405.201 42.8179C404.333 41.1939 403.899 39.2899 403.899 37.1059V36.6019C403.899 34.4179 404.333 32.5279 405.201 30.9319C406.069 29.3079 407.287 28.0619 408.855 27.1939C410.423 26.2979 412.243 25.8499 414.315 25.8499C416.359 25.8499 418.137 26.3119 419.649 27.2359C421.161 28.1319 422.337 29.3919 423.177 31.0159C424.017 32.6119 424.437 34.4739 424.437 36.6019V38.4079H409.275C409.331 39.8359 409.863 40.9979 410.871 41.8939C411.879 42.7899 413.111 43.2379 414.567 43.2379C416.051 43.2379 417.143 42.9159 417.843 42.2719C418.543 41.6279 419.075 40.9139 419.439 40.1299L423.765 42.3979C423.373 43.1259 422.799 43.9239 422.043 44.7919C421.315 45.6319 420.335 46.3599 419.103 46.9759C417.871 47.5639 416.303 47.8579 414.399 47.8579ZM409.317 34.4599H419.061C418.949 33.2559 418.459 32.2899 417.591 31.5619C416.751 30.8339 415.645 30.4699 414.273 30.4699C412.845 30.4699 411.711 30.8339 410.871 31.5619C410.031 32.2899 409.513 33.2559 409.317 34.4599Z" fill="#EB4C6F"/>
<path d="M382.631 47.2699V26.4379H387.839V28.7899H388.595C388.903 27.9499 389.407 27.3339 390.107 26.9419C390.835 26.5499 391.675 26.3539 392.627 26.3539H395.147V31.0579H392.543C391.199 31.0579 390.093 31.4219 389.225 32.1499C388.357 32.8499 387.923 33.9419 387.923 35.4259V47.2699H382.631Z" fill="#EB4C6F"/>
<path d="M369.346 47.8579C367.274 47.8579 365.412 47.4379 363.76 46.5979C362.108 45.7579 360.806 44.5399 359.854 42.9439C358.902 41.3479 358.426 39.4299 358.426 37.1899V36.5179C358.426 34.2779 358.902 32.3599 359.854 30.7639C360.806 29.1679 362.108 27.9499 363.76 27.1099C365.412 26.2699 367.274 25.8499 369.346 25.8499C371.418 25.8499 373.28 26.2699 374.932 27.1099C376.584 27.9499 377.886 29.1679 378.838 30.7639C379.79 32.3599 380.266 34.2779 380.266 36.5179V37.1899C380.266 39.4299 379.79 41.3479 378.838 42.9439C377.886 44.5399 376.584 45.7579 374.932 46.5979C373.28 47.4379 371.418 47.8579 369.346 47.8579ZM369.346 43.1539C370.97 43.1539 372.314 42.6359 373.378 41.5999C374.442 40.5359 374.974 39.0239 374.974 37.0639V36.6439C374.974 34.6839 374.442 33.1859 373.378 32.1499C372.342 31.0859 370.998 30.5539 369.346 30.5539C367.722 30.5539 366.378 31.0859 365.314 32.1499C364.25 33.1859 363.718 34.6839 363.718 36.6439V37.0639C363.718 39.0239 364.25 40.5359 365.314 41.5999C366.378 42.6359 367.722 43.1539 369.346 43.1539Z" fill="#EB4C6F"/>
<path d="M359.48 57.6019C356.372 57.6019 353.754 57.0559 351.626 55.9639C349.498 54.8719 347.888 53.2059 346.796 50.9659C345.732 48.7259 345.2 45.8699 345.2 42.3979V30.7219C345.2 27.2499 345.732 24.3939 346.796 22.1539C347.888 19.9139 349.498 18.2479 351.626 17.1559C353.754 16.0639 356.372 15.5179 359.48 15.5179V20.0539C356.428 20.0539 354.132 20.9359 352.592 22.6999C351.08 24.4359 350.324 27.1659 350.324 30.8899V42.2299C350.324 45.9539 351.08 48.6839 352.592 50.4199C354.132 52.1839 356.428 53.0659 359.48 53.0659V57.6019Z" fill="#EB4C6F"/>
</svg>
