<svg width="480" height="480" viewBox="0 0 480 480" fill="none" xmlns="http://www.w3.org/2000/svg">
<path d="M480 240C480 372.548 372.548 480 240 480C107.452 480 0 372.548 0 240C0 107.452 107.452 0 240 0C372.548 0 480 107.452 480 240Z" fill="#DA5597"/>
<path d="M391.516 262.773L415.609 227.194L425.299 233.756L401.205 269.335L391.516 262.773ZM383.852 284.525C381.834 283.158 380.562 281.34 380.038 279.071C379.598 276.786 380.095 274.583 381.531 272.463C382.966 270.344 384.809 269.089 387.061 268.7C389.396 268.294 391.574 268.775 393.592 270.142C395.661 271.543 396.916 273.386 397.356 275.672C397.83 277.906 397.349 280.084 395.914 282.203C394.478 284.323 392.618 285.603 390.333 286.043C388.082 286.432 385.922 285.926 383.852 284.525Z" fill="white"/>
<path d="M324.068 272.064L352.428 215.103L362.576 220.155L360.131 225.066L361.604 225.799C363.32 224.679 365.458 224.007 368.02 223.785C370.609 223.508 373.731 224.279 377.387 226.099C380.66 227.729 383.281 230.055 385.249 233.077C387.244 236.045 388.313 239.505 388.456 243.457C388.599 247.409 387.57 251.595 385.37 256.014L384.718 257.324C382.517 261.743 379.797 265.087 376.558 267.355C373.318 269.623 369.899 270.882 366.302 271.134C362.731 271.331 359.309 270.614 356.036 268.984C353.58 267.762 351.656 266.429 350.264 264.987C348.899 263.627 347.915 262.252 347.313 260.863C346.793 259.446 346.463 258.125 346.325 256.898L344.852 256.165L334.38 277.198L324.068 272.064ZM357.408 258.433C360.627 260.036 363.776 260.344 366.854 259.358C370.014 258.344 372.572 255.872 374.528 251.944L374.935 251.126C376.891 247.197 377.308 243.694 376.185 240.616C375.089 237.483 372.959 235.129 369.795 233.553C366.63 231.978 363.468 231.697 360.308 232.711C357.175 233.67 354.63 236.114 352.674 240.043L352.267 240.861C350.311 244.789 349.881 248.32 350.977 251.453C352.099 254.531 354.243 256.858 357.408 258.433Z" fill="white"/>
<path d="M302.059 247.008C298.665 246.018 295.903 244.387 293.772 242.115C291.717 239.802 290.388 237.065 289.786 233.905C289.183 230.746 289.403 227.381 290.444 223.812L298.02 197.833L309.079 201.058L301.758 226.16C300.803 229.436 300.876 232.124 301.978 234.223C303.139 236.339 305.211 237.833 308.195 238.703C311.589 239.693 314.546 239.349 317.067 237.671C319.605 235.936 321.462 233.049 322.64 229.012L329.09 206.894L340.149 210.119L327.453 253.652L316.57 250.478L318.233 244.773L316.654 244.312C315.525 245.57 313.79 246.62 311.45 247.461C309.109 248.302 305.979 248.151 302.059 247.008Z" fill="white"/>
<path d="M207.178 236.451L201.568 191L212.994 191.199L216.362 228.838L218.008 228.867L224.512 191.399L242.977 191.721L248.173 229.392L249.819 229.42L254.494 191.921L265.921 192.12L258.733 237.348L239.628 237.015L234.432 199.344L232.786 199.315L226.282 236.783L207.178 236.451Z" fill="white"/>
<path d="M178.074 241.637C173.635 242.438 169.484 242.258 165.621 241.097C161.757 239.936 158.497 237.83 155.841 234.779C153.185 231.728 151.424 227.804 150.558 223.005L150.298 221.566C149.432 216.767 149.71 212.475 151.133 208.688C152.555 204.901 154.874 201.788 158.088 199.35C161.302 196.912 165.128 195.293 169.567 194.492C174.005 193.691 178.156 193.871 182.02 195.032C185.884 196.193 189.143 198.299 191.8 201.349C194.456 204.4 196.217 208.325 197.083 213.123L197.343 214.563C198.209 219.361 197.93 223.654 196.508 227.441C195.086 231.228 192.767 234.34 189.553 236.778C186.339 239.216 182.513 240.836 178.074 241.637ZM176.256 231.56C179.735 230.932 182.413 229.303 184.292 226.672C186.16 223.982 186.715 220.537 185.958 216.339L185.795 215.439C185.038 211.24 183.319 208.237 180.639 206.429C178.009 204.55 174.924 203.93 171.385 204.569C167.906 205.196 165.233 206.856 163.365 209.546C161.486 212.177 160.926 215.591 161.683 219.79L161.845 220.69C162.603 224.888 164.327 227.922 167.018 229.79C169.698 231.598 172.777 232.188 176.256 231.56Z" fill="white"/>
<path d="M110.598 260.47L88.5029 200.408L99.314 196.431L107.679 219.169L109.223 218.6C109.344 217.517 109.722 216.339 110.358 215.066C110.994 213.793 112.007 212.576 113.399 211.414C114.826 210.175 116.798 209.092 119.315 208.166C122.633 206.946 125.805 206.655 128.833 207.295C131.897 207.856 134.61 209.229 136.972 211.412C139.313 213.538 141.135 216.375 142.44 219.921L151.783 245.318L140.972 249.296L131.945 224.756C130.766 221.553 129.082 219.445 126.891 218.433C124.757 217.399 122.232 217.419 119.314 218.492C115.997 219.713 113.833 221.775 112.823 224.68C111.793 227.527 112.003 230.923 113.455 234.87L121.41 256.492L110.598 260.47Z" fill="white"/>
<path d="M91.7479 271.873C86.5988 274.778 81.7497 276.044 77.2006 275.672C72.6516 275.299 68.864 273.237 65.8379 269.486L73.7267 261.886C75.1465 263.534 76.5806 264.65 78.0289 265.232C79.5303 265.785 81.0528 265.94 82.5963 265.699C84.163 265.375 85.716 264.779 87.2555 263.91C89.5911 262.593 91.0917 261.221 91.7572 259.796C92.3928 258.318 92.3662 256.968 91.6773 255.747C90.9885 254.526 89.9336 253.897 88.5125 253.859C87.0615 253.768 85.0483 254.169 82.4731 255.062L80.019 255.922C76.9591 256.948 74.0333 257.654 71.2416 258.039C68.4199 258.372 65.8548 258.104 63.5462 257.238C61.2376 256.371 59.3495 254.637 57.882 252.036C55.6658 248.107 55.4069 244.3 57.1054 240.612C58.7739 236.871 61.9439 233.683 66.6152 231.048C71.0211 228.562 75.2379 227.478 79.2657 227.794C83.2934 228.111 86.6569 229.608 89.3563 232.284L81.6574 240.406C80.0947 238.629 78.4102 237.69 76.6039 237.589C74.8507 237.458 73.0186 237.932 71.1076 239.01C69.1966 240.089 67.9315 241.257 67.3122 242.516C66.663 243.722 66.6679 244.909 67.3268 246.077C68.0455 247.351 69.1155 248.007 70.5365 248.045C71.9276 248.03 73.6155 247.673 75.6 246.973L78.0541 246.113C81.3263 244.967 84.4113 244.171 87.3092 243.726C90.2302 243.197 92.8451 243.367 95.1537 244.234C97.4854 245.017 99.4299 246.789 100.987 249.55C103.323 253.69 103.622 257.755 101.884 261.745C100.17 265.652 96.7908 269.028 91.7479 271.873Z" fill="white"/>
<path d="M299.642 303.002C298.676 303.002 297.855 302.689 297.18 302.061C296.528 301.409 296.202 300.577 296.202 299.563C296.202 298.549 296.528 297.729 297.18 297.101C297.855 296.449 298.676 296.124 299.642 296.124C300.631 296.124 301.452 296.449 302.103 297.101C302.755 297.729 303.081 298.549 303.081 299.563C303.081 300.577 302.755 301.409 302.103 302.061C301.452 302.689 300.631 303.002 299.642 303.002Z" fill="white"/>
<path d="M291.03 303.002C290.064 303.002 289.244 302.689 288.568 302.061C287.916 301.409 287.59 300.577 287.59 299.563C287.59 298.549 287.916 297.729 288.568 297.101C289.244 296.449 290.064 296.124 291.03 296.124C292.019 296.124 292.84 296.449 293.492 297.101C294.143 297.729 294.469 298.549 294.469 299.563C294.469 300.577 294.143 301.409 293.492 302.061C292.84 302.689 292.019 303.002 291.03 303.002Z" fill="white"/>
<path d="M282.419 303.002C281.453 303.002 280.633 302.689 279.957 302.061C279.305 301.409 278.979 300.577 278.979 299.563C278.979 298.549 279.305 297.729 279.957 297.101C280.633 296.449 281.453 296.124 282.419 296.124C283.408 296.124 284.229 296.449 284.881 297.101C285.532 297.729 285.858 298.549 285.858 299.563C285.858 300.577 285.532 301.409 284.881 302.061C284.229 302.689 283.408 303.002 282.419 303.002Z" fill="white"/>
<path d="M269.23 303.003C267.444 303.003 265.863 302.629 264.487 301.881C263.136 301.108 262.074 300.034 261.302 298.659C260.553 297.259 260.179 295.617 260.179 293.735V293.3C260.179 291.418 260.553 289.789 261.302 288.413C262.05 287.013 263.1 285.939 264.451 285.191C265.803 284.418 267.372 284.032 269.158 284.032C270.92 284.032 272.452 284.43 273.756 285.227C275.059 285.999 276.073 287.085 276.797 288.485C277.521 289.861 277.883 291.466 277.883 293.3V294.857H264.813C264.862 296.088 265.32 297.09 266.189 297.862C267.058 298.634 268.12 299.021 269.375 299.021C270.654 299.021 271.595 298.743 272.199 298.188C272.802 297.633 273.261 297.017 273.575 296.342L277.304 298.297C276.966 298.924 276.471 299.612 275.819 300.36C275.192 301.084 274.347 301.712 273.285 302.243C272.223 302.75 270.871 303.003 269.23 303.003ZM264.85 291.454H273.249C273.152 290.416 272.73 289.583 271.982 288.956C271.258 288.328 270.304 288.015 269.122 288.015C267.891 288.015 266.913 288.328 266.189 288.956C265.465 289.583 265.018 290.416 264.85 291.454Z" fill="white"/>
<path d="M251.692 303.003C249.351 303.003 247.432 302.496 245.936 301.482C244.44 300.469 243.534 299.021 243.221 297.138L247.42 296.052C247.589 296.897 247.867 297.56 248.253 298.043C248.663 298.526 249.158 298.876 249.737 299.093C250.341 299.286 250.992 299.383 251.692 299.383C252.754 299.383 253.539 299.202 254.046 298.84C254.553 298.453 254.806 297.983 254.806 297.428C254.806 296.873 254.565 296.45 254.082 296.161C253.599 295.847 252.827 295.593 251.765 295.4L250.751 295.219C249.496 294.978 248.35 294.652 247.312 294.242C246.274 293.807 245.441 293.216 244.814 292.468C244.186 291.72 243.872 290.754 243.872 289.571C243.872 287.785 244.524 286.422 245.827 285.48C247.131 284.515 248.844 284.032 250.968 284.032C252.972 284.032 254.637 284.479 255.964 285.372C257.292 286.265 258.161 287.435 258.571 288.884L254.335 290.187C254.142 289.27 253.744 288.618 253.141 288.232C252.561 287.846 251.837 287.653 250.968 287.653C250.099 287.653 249.436 287.809 248.977 288.123C248.519 288.413 248.289 288.823 248.289 289.354C248.289 289.933 248.531 290.368 249.013 290.658C249.496 290.923 250.148 291.128 250.968 291.273L251.982 291.454C253.334 291.695 254.553 292.021 255.639 292.432C256.749 292.818 257.618 293.385 258.245 294.133C258.897 294.857 259.223 295.847 259.223 297.102C259.223 298.984 258.535 300.445 257.159 301.482C255.808 302.496 253.985 303.003 251.692 303.003Z" fill="white"/>
<path d="M236.79 302.496V277.153H241.352V302.496H236.79Z" fill="white"/>
<path d="M226.248 303.003C224.462 303.003 222.881 302.629 221.506 301.881C220.154 301.108 219.092 300.034 218.32 298.659C217.571 297.259 217.197 295.617 217.197 293.735V293.3C217.197 291.418 217.571 289.789 218.32 288.413C219.068 287.013 220.118 285.939 221.469 285.191C222.821 284.418 224.39 284.032 226.176 284.032C227.938 284.032 229.47 284.43 230.774 285.227C232.077 285.999 233.091 287.085 233.815 288.485C234.539 289.861 234.901 291.466 234.901 293.3V294.857H221.831C221.88 296.088 222.338 297.09 223.207 297.862C224.076 298.634 225.138 299.021 226.393 299.021C227.672 299.021 228.614 298.743 229.217 298.188C229.82 297.633 230.279 297.017 230.593 296.342L234.322 298.297C233.984 298.924 233.489 299.612 232.837 300.36C232.21 301.084 231.365 301.712 230.303 302.243C229.241 302.75 227.889 303.003 226.248 303.003ZM221.868 291.454H230.267C230.17 290.416 229.748 289.583 229 288.956C228.276 288.328 227.322 288.015 226.14 288.015C224.909 288.015 223.931 288.328 223.207 288.956C222.483 289.583 222.037 290.416 221.868 291.454Z" fill="white"/>
<path d="M198.866 302.495V284.538H203.355V286.566H204.007C204.273 285.842 204.707 285.311 205.311 284.973C205.938 284.635 206.662 284.466 207.483 284.466H209.655V288.521H207.41C206.252 288.521 205.298 288.834 204.55 289.462C203.802 290.065 203.428 291.007 203.428 292.286V302.495H198.866Z" fill="white"/>
<path d="M187.413 303.003C185.627 303.003 184.022 302.641 182.598 301.917C181.174 301.193 180.052 300.143 179.231 298.767C178.41 297.391 178 295.738 178 293.807V293.228C178 291.297 178.41 289.644 179.231 288.268C180.052 286.892 181.174 285.842 182.598 285.118C184.022 284.394 185.627 284.032 187.413 284.032C189.199 284.032 190.804 284.394 192.228 285.118C193.652 285.842 194.774 286.892 195.595 288.268C196.416 289.644 196.826 291.297 196.826 293.228V293.807C196.826 295.738 196.416 297.391 195.595 298.767C194.774 300.143 193.652 301.193 192.228 301.917C190.804 302.641 189.199 303.003 187.413 303.003ZM187.413 298.948C188.813 298.948 189.971 298.502 190.889 297.609C191.806 296.692 192.264 295.388 192.264 293.699V293.337C192.264 291.647 191.806 290.356 190.889 289.463C189.996 288.546 188.837 288.087 187.413 288.087C186.013 288.087 184.855 288.546 183.937 289.463C183.02 290.356 182.562 291.647 182.562 293.337V293.699C182.562 295.388 183.02 296.692 183.937 297.609C184.855 298.502 186.013 298.948 187.413 298.948Z" fill="white"/>
</svg>
